# xmcd
# 
# Track frame offsets:
#     150
#     18459
#     40162
#     59964
#     75969
#     101778
#     125334
#     137710
#     150205
#     165986
# 
# Disc length: 2522
# 
# Revision: 0
# Processed by: cddbd v1.5.2PL0 Copyright (c) Steve Scherf et al.
# Submitted via: fre:ac v1.0.17
# 
DISCID=7509d80a
DTITLE=Arsen Shomakhov - Dynamic
DYEAR=2014
DGENRE=Blues
TTITLE0=Groove on!
TTITLE1=Mellow Down Easy
TTITLE2=How'd you learn to shake it like that
TTITLE3=Dance with me
TTITLE4=Whisky Drinking Woman
TTITLE5=Can't save a dollar
TTITLE6=Boogie Bounce
TTITLE7=Shake Your Boogie Leg
TTITLE8=Robert Nighthawk Stomp
TTITLE9=Swamp Train
EXTD=
EXTT0=
EXTT1=
EXTT2=
EXTT3=
EXTT4=
EXTT5=
EXTT6=
EXTT7=
EXTT8=
EXTT9=
PLAYORDER=
